<svg id="visual" viewBox="0 0 900 675" width="900" height="675" xmlns="http://www.w3.org/2000/svg" xmlns:xlink="http://www.w3.org/1999/xlink" version="1.1"><rect x="0" y="0" width="900" height="675" fill="#000913"></rect><path d="M0 156L16.7 152C33.3 148 66.7 140 100 127.8C133.3 115.7 166.7 99.3 200 112.3C233.3 125.3 266.7 167.7 300 177.7C333.3 187.7 366.7 165.3 400 163C433.3 160.7 466.7 178.3 500 178.3C533.3 178.3 566.7 160.7 600 145.3C633.3 130 666.7 117 700 121.3C733.3 125.7 766.7 147.3 800 146.3C833.3 145.3 866.7 121.7 883.3 109.8L900 98L900 676L883.3 676C866.7 676 833.3 676 800 676C766.7 676 733.3 676 700 676C666.7 676 633.3 676 600 676C566.7 676 533.3 676 500 676C466.7 676 433.3 676 400 676C366.7 676 333.3 676 300 676C266.7 676 233.3 676 200 676C166.7 676 133.3 676 100 676C66.7 676 33.3 676 16.7 676L0 676Z" fill="#4cff00"></path><path d="M0 136L16.7 151.2C33.3 166.3 66.7 196.7 100 205.5C133.3 214.3 166.7 201.7 200 204.8C233.3 208 266.7 227 300 231.2C333.3 235.3 366.7 224.7 400 216C433.3 207.3 466.7 200.7 500 199.5C533.3 198.3 566.7 202.7 600 215.2C633.3 227.7 666.7 248.3 700 245.7C733.3 243 766.7 217 800 211.8C833.3 206.7 866.7 222.3 883.3 230.2L900 238L900 676L883.3 676C866.7 676 833.3 676 800 676C766.7 676 733.3 676 700 676C666.7 676 633.3 676 600 676C566.7 676 533.3 676 500 676C466.7 676 433.3 676 400 676C366.7 676 333.3 676 300 676C266.7 676 233.3 676 200 676C166.7 676 133.3 676 100 676C66.7 676 33.3 676 16.7 676L0 676Z" fill="#48eb00"></path><path d="M0 270L16.7 271.7C33.3 273.3 66.7 276.7 100 283.3C133.3 290 166.7 300 200 305.3C233.3 310.7 266.7 311.3 300 309C333.3 306.7 366.7 301.3 400 289.3C433.3 277.3 466.7 258.7 500 261.5C533.3 264.3 566.7 288.7 600 291.5C633.3 294.3 666.7 275.7 700 273C733.3 270.3 766.7 283.7 800 281C833.3 278.3 866.7 259.7 883.3 250.3L900 241L900 676L883.3 676C866.7 676 833.3 676 800 676C766.7 676 733.3 676 700 676C666.7 676 633.3 676 600 676C566.7 676 533.3 676 500 676C466.7 676 433.3 676 400 676C366.7 676 333.3 676 300 676C266.7 676 233.3 676 200 676C166.7 676 133.3 676 100 676C66.7 676 33.3 676 16.7 676L0 676Z" fill="#44d700"></path><path d="M0 310L16.7 317.5C33.3 325 66.7 340 100 342.2C133.3 344.3 166.7 333.7 200 322C233.3 310.3 266.7 297.7 300 291.8C333.3 286 366.7 287 400 288C433.3 289 466.7 290 500 286.7C533.3 283.3 566.7 275.7 600 286.7C633.3 297.7 666.7 327.3 700 327.3C733.3 327.3 766.7 297.7 800 289.2C833.3 280.7 866.7 293.3 883.3 299.7L900 306L900 676L883.3 676C866.7 676 833.3 676 800 676C766.7 676 733.3 676 700 676C666.7 676 633.3 676 600 676C566.7 676 533.3 676 500 676C466.7 676 433.3 676 400 676C366.7 676 333.3 676 300 676C266.7 676 233.3 676 200 676C166.7 676 133.3 676 100 676C66.7 676 33.3 676 16.7 676L0 676Z" fill="#40c400"></path><path d="M0 366L16.7 368.2C33.3 370.3 66.7 374.7 100 384C133.3 393.3 166.7 407.7 200 406.5C233.3 405.3 266.7 388.7 300 374.8C333.3 361 366.7 350 400 359.7C433.3 369.3 466.7 399.7 500 397.8C533.3 396 566.7 362 600 351C633.3 340 666.7 352 700 367C733.3 382 766.7 400 800 404C833.3 408 866.7 398 883.3 393L900 388L900 676L883.3 676C866.7 676 833.3 676 800 676C766.7 676 733.3 676 700 676C666.7 676 633.3 676 600 676C566.7 676 533.3 676 500 676C466.7 676 433.3 676 400 676C366.7 676 333.3 676 300 676C266.7 676 233.3 676 200 676C166.7 676 133.3 676 100 676C66.7 676 33.3 676 16.7 676L0 676Z" fill="#3bb100"></path><path d="M0 461L16.7 449.5C33.3 438 66.7 415 100 418.7C133.3 422.3 166.7 452.7 200 467C233.3 481.3 266.7 479.7 300 477.2C333.3 474.7 366.7 471.3 400 461.5C433.3 451.7 466.7 435.3 500 436C533.3 436.7 566.7 454.3 600 457C633.3 459.7 666.7 447.3 700 449C733.3 450.7 766.7 466.3 800 467C833.3 467.7 866.7 453.3 883.3 446.2L900 439L900 676L883.3 676C866.7 676 833.3 676 800 676C766.7 676 733.3 676 700 676C666.7 676 633.3 676 600 676C566.7 676 533.3 676 500 676C466.7 676 433.3 676 400 676C366.7 676 333.3 676 300 676C266.7 676 233.3 676 200 676C166.7 676 133.3 676 100 676C66.7 676 33.3 676 16.7 676L0 676Z" fill="#369e00"></path><path d="M0 489L16.7 487C33.3 485 66.7 481 100 475C133.3 469 166.7 461 200 459.5C233.3 458 266.7 463 300 475.7C333.3 488.3 366.7 508.7 400 514.8C433.3 521 466.7 513 500 500.5C533.3 488 566.7 471 600 463.2C633.3 455.3 666.7 456.7 700 457.3C733.3 458 766.7 458 800 466.2C833.3 474.3 866.7 490.7 883.3 498.8L900 507L900 676L883.3 676C866.7 676 833.3 676 800 676C766.7 676 733.3 676 700 676C666.7 676 633.3 676 600 676C566.7 676 533.3 676 500 676C466.7 676 433.3 676 400 676C366.7 676 333.3 676 300 676C266.7 676 233.3 676 200 676C166.7 676 133.3 676 100 676C66.7 676 33.3 676 16.7 676L0 676Z" fill="#318c00"></path><path d="M0 537L16.7 538.8C33.3 540.7 66.7 544.3 100 543.5C133.3 542.7 166.7 537.3 200 538.3C233.3 539.3 266.7 546.7 300 543.8C333.3 541 366.7 528 400 520.8C433.3 513.7 466.7 512.3 500 520.3C533.3 528.3 566.7 545.7 600 552.8C633.3 560 666.7 557 700 554.7C733.3 552.3 766.7 550.7 800 547.7C833.3 544.7 866.7 540.3 883.3 538.2L900 536L900 676L883.3 676C866.7 676 833.3 676 800 676C766.7 676 733.3 676 700 676C666.7 676 633.3 676 600 676C566.7 676 533.3 676 500 676C466.7 676 433.3 676 400 676C366.7 676 333.3 676 300 676C266.7 676 233.3 676 200 676C166.7 676 133.3 676 100 676C66.7 676 33.3 676 16.7 676L0 676Z" fill="#2c7a00"></path><path d="M0 602L16.7 599C33.3 596 66.7 590 100 586.5C133.3 583 166.7 582 200 591C233.3 600 266.7 619 300 620.5C333.3 622 366.7 606 400 596.5C433.3 587 466.7 584 500 589.7C533.3 595.3 566.7 609.7 600 619.2C633.3 628.7 666.7 633.3 700 633.8C733.3 634.3 766.7 630.7 800 628.3C833.3 626 866.7 625 883.3 624.5L900 624L900 676L883.3 676C866.7 676 833.3 676 800 676C766.7 676 733.3 676 700 676C666.7 676 633.3 676 600 676C566.7 676 533.3 676 500 676C466.7 676 433.3 676 400 676C366.7 676 333.3 676 300 676C266.7 676 233.3 676 200 676C166.7 676 133.3 676 100 676C66.7 676 33.3 676 16.7 676L0 676Z" fill="#266900"></path></svg>